# xmcd
#
# Track frame offsets: 
#        150
#        13254
#        25755
#        37625
#        47634
#        66564
#        78129
#        88837
#        100530
#        117657
#        127658
#        139067
#        149138
#        162916
#        172017
#        181323
#        192900
#        205466
#        223683
#        234563
#        244359
#        257984
#        267340
#        278628
#        291997
#        305833
#
# Disc length: 4231 seconds
#
# Revision: 0
# Processed by: cddbd v1.5.2PL0 Copyright (c) Steve Scherf et al.
# Submitted via: ExactAudioCopyFreeDBPlugin 1.0
#
DISCID=8d10851a
DTITLE=Tommy McLain - Tommy McLain - Sweet Dreams - Crazy Cajun Record
DTITLE=ings
DYEAR=1999
DGENRE=Swamp Pop
TTITLE0=A Legend In My Time
TTITLE1=After Loving You
TTITLE2=Cold Cold Heart
TTITLE3=Tender Years
TTITLE4=Honky Tonk
TTITLE5=Wasted Days And Wasted Nights
TTITLE6=Before The Next Teardrop Falls
TTITLE7=Sweet Dreams
TTITLE8=Where You Been Baby
TTITLE9=No Tomorrows Now
TTITLE10=If You Don't Love Me
TTITLE11=Before I Grow Too Old
TTITLE12=Tennessee Blues
TTITLE13=When It Rains It Pours
TTITLE14=Let Me Be The Singer
TTITLE15=I'm On My Way To Mexico
TTITLE16=Catfish John
TTITLE17=Where You Been Baby (Version 2)
TTITLE18=Mama, Send Me A Dollar
TTITLE19=Jukebox Songs
TTITLE20=Dim Lights, Thick Smoke (And Loud, Loud Music)
TTITLE21=I Can't Go On
TTITLE22=Stuck In New Orleans
TTITLE23=Today I Started Loving You Again
TTITLE24=I Hope
TTITLE25=Good Morning Louisiana
EXTD=
EXTT0=
EXTT1=
EXTT2=
EXTT3=
EXTT4=
EXTT5=
EXTT6=
EXTT7=
EXTT8=
EXTT9=
EXTT10=
EXTT11=
EXTT12=
EXTT13=
EXTT14=
EXTT15=
EXTT16=
EXTT17=
EXTT18=
EXTT19=
EXTT20=
EXTT21=
EXTT22=
EXTT23=
EXTT24=
EXTT25=
PLAYORDER=
